<svg xmlns="http://www.w3.org/2000/svg" viewBox="0 0 58.85 65.46"><defs><style>.cls-1{fill:#e0d5da;}</style></defs><title>Asset 2</title><g id="Layer_2" data-name="Layer 2"><g id="Layer_1-2" data-name="Layer 1"><path class="cls-1" d="M1.36,64.88C1.14,59.67,1,54.45.86,49.24S.56,38.81.47,33.59L.2,17.95Q.07,10.13,0,2.3L0,0,2,1.14c9.19,5.17,18.32,10.44,27.48,15.68S47.76,27.39,56.83,32.77l2,1.2-2,1.14Q43.12,42.89,29.31,50.48,22.42,54.3,15.47,58c-4.62,2.5-9.24,5-13.9,7.44C6,62.64,10.48,59.9,15,57.14s9-5.51,13.45-8.22Q41.9,40.76,55.48,32.77v2.34C46.29,29.94,37.16,24.66,28,19.42S9.76,8.85.69,3.47l2-1.16q-.06,7.82-.18,15.64L2.25,33.59C2.16,38.81,2,44,1.86,49.24S1.58,59.67,1.36,64.88Z"/></g></g></svg>