<svg xmlns="http://www.w3.org/2000/svg" viewBox="0 0 61.24 67"><defs><style>.cls-1{fill:#e0d5da;}</style></defs><title>skewed_arrow</title><g id="Layer_2" data-name="Layer 2"><g id="Layer_1-2" data-name="Layer 1"><path class="cls-1" d="M2.34,65.82c4.39-2.84,8.83-5.58,13.24-8.37l13.3-8.23c4.42-2.77,8.9-5.44,13.36-8.16l13.38-8.13v3.87l-6.89-3.89-6.83-4-13.6-8.08L1,4.82l2.77-1.6L2.29,66.4l-.52-.31Zm.33.61-.58.3L1.58,67v-.57L.08,3.22,0,0,2.85,1.62,30.36,17.25,44.16,25,51,28.9l6.81,4,3.4,2-3.4,1.86L44.11,44.31c-4.58,2.5-9.14,5-13.75,7.49L16.55,59.19C11.92,61.6,7.31,64.06,2.67,66.43Z"/></g></g></svg>